<svg width="512" height="512" viewBox="0 0 512 512" xmlns="http://www.w3.org/2000/svg">
  <defs>
    <linearGradient id="grad1" x1="0%" y1="0%" x2="100%" y2="100%">
      <stop offset="0%" style="stop-color:#4F46E5;stop-opacity:1" />
      <stop offset="100%" style="stop-color:#7C3AED;stop-opacity:1" />
    </linearGradient>
  </defs>
  
  <!-- Background circle -->
  <circle cx="256" cy="256" r="240" fill="url(#grad1)" stroke="#1F2937" stroke-width="8"/>
  
  <!-- Microphone body -->
  <rect x="220" y="180" width="72" height="120" rx="36" fill="#F3F4F6" stroke="#374151" stroke-width="3"/>
  
  <!-- Microphone grille -->
  <line x1="235" y1="200" x2="235" y2="280" stroke="#6B7280" stroke-width="2"/>
  <line x1="245" y1="200" x2="245" y2="280" stroke="#6B7280" stroke-width="2"/>
  <line x1="255" y1="200" x2="255" y2="280" stroke="#6B7280" stroke-width="2"/>
  <line x1="265" y1="200" x2="265" y2="280" stroke="#6B7280" stroke-width="2"/>
  <line x1="275" y1="200" x2="275" y2="280" stroke="#6B7280" stroke-width="2"/>
  
  <!-- Microphone stand -->
  <rect x="248" y="300" width="16" height="80" fill="#374151"/>
  <rect x="230" y="370" width="52" height="12" rx="6" fill="#374151"/>
  
  <!-- Musical notes -->
  <circle cx="180" cy="150" r="8" fill="#FCD34D"/>
  <rect x="188" y="130" width="3" height="40" fill="#FCD34D"/>
  <path d="M 188 130 Q 200 125 205 135" stroke="#FCD34D" stroke-width="3" fill="none"/>
  
  <circle cx="340" cy="170" r="6" fill="#FCD34D"/>
  <rect x="346" y="155" width="2" height="30" fill="#FCD34D"/>
  <path d="M 346 155 Q 355 152 358 160" stroke="#FCD34D" stroke-width="2" fill="none"/>
  
  <!-- KJ text -->
  <text x="256" y="450" font-family="Arial, sans-serif" font-size="48" font-weight="bold" text-anchor="middle" fill="#F3F4F6">KJ</text>
</svg>
